<svg  xmlns="http://www.w3.org/2000/svg">
    <symbol id="basket" viewBox="0 0 22 22" fill="none">
        <path d="M3.55859 8.72374L8.50277 1" stroke="black" stroke-miterlimit="10" stroke-linecap="round"/>
        <path d="M13.5626 1L18.5649 8.72374" stroke="black" stroke-miterlimit="10" stroke-linecap="round"/>
        <path d="M19.5143 11.6387H2.48571C1.68571 11.6387 1 10.9906 1 10.2345C1 9.47841 1.68571 8.83032 2.48571 8.83032H6.74286H11H19.5143C20.3143 8.83032 21 9.47841 21 10.2345C21 10.9906 20.3143 11.6387 19.5143 11.6387Z" stroke="black" stroke-miterlimit="10"/>
        <path d="M11.5053 11.6387H2.90503L4.23259 19.5553C4.23259 20.3643 4.86751 20.9999 5.67559 20.9999H11.5053H17.335C18.1431 20.9999 18.778 20.3643 18.778 19.5553L20.0479 11.6387H11.5053Z" stroke="black" stroke-miterlimit="10"/>
        <path d="M11.4763 13.511V19.1277" stroke="black" stroke-miterlimit="10" stroke-linecap="round"/>
        <path d="M17.1896 13.511L15.2849 19.1277" stroke="black" stroke-miterlimit="10" stroke-linecap="round"/>
        <path d="M5.76111 13.511L6.71349 19.1277" stroke="black" stroke-miterlimit="10" stroke-linecap="round"/>
    </symbol>
    <symbol id="home"  viewBox="0 0 25 22" fill="none">
        <path d="M2.76392 21H22.6185" stroke="black" stroke-linecap="round"/>
        <path d="M8.8728 19.5966V13.3558C8.8728 12.8534 9.0463 12.3665 9.36395 11.9773V11.9773C9.77802 11.4699 10.3982 11.1755 11.0531 11.1755H14.7107C15.3656 11.1755 15.9858 11.4699 16.3998 11.9773V11.9773C16.7175 12.3665 16.891 12.8534 16.891 13.3558V19.5966" stroke="black" stroke-linecap="round"/>
        <path d="M6.2 19.9474V9.77197H2L13.0727 1L23 9.77197H19.5636V19.9474" stroke="black" stroke-linecap="round"/>
    </symbol>
    <symbol id="catalog"  viewBox="0 0 21 21" fill="none" >
        <path d="M20.5 7.05882C20.5 10.6672 17.482 13.6176 13.7273 13.6176C9.97267 13.6176 6.95459 10.6672 6.95459 7.05882C6.95459 3.45045 9.97267 0.5 13.7273 0.5C17.482 0.5 20.5 3.45045 20.5 7.05882Z" stroke="black" stroke-linecap="round"/>
        <path d="M8.87879 12.3535L1 20.0006" stroke="black" stroke-linecap="round"/>
    </symbol>
    <symbol id="favorite"  viewBox="0 0 24 22" fill="none" >
        <path d="M3.40845 2.51114C5.85659 0.610412 9.37188 -0.253553 12.0083 4.58465C14.0798 -0.0807608 18.1601 0.668009 20.6082 2.51114C23.6213 4.87264 23.8096 8.78929 21.0476 11.3812L12.0083 21L8.05364 16.7378" stroke="black" stroke-miterlimit="10" stroke-linecap="round"/>
        <path d="M1.14705 8.38583C0.895638 7.29148 0.95849 6.13952 1.39845 5.04517" stroke="black" stroke-miterlimit="10" stroke-linecap="round"/>
    </symbol>
    <symbol id="profile"  viewBox="0 0 24 22" fill="none">
        <path d="M6.02857 20.5656V20.5656C6.02857 20.7535 5.82145 20.8661 5.66731 20.7587C2.84405 18.791 1 15.5432 1 11.8698C1 5.86656 5.92487 1 12 1C18.0751 1 23 5.86656 23 11.8698C23 15.5432 21.1559 18.791 18.3327 20.7587C18.1785 20.8661 17.9714 20.7535 17.9714 20.5656V20.5656" stroke="black"/>
        <path d="M15.585 8.14281C15.585 10.0908 13.9853 11.6801 11.9993 11.6801C10.0133 11.6801 8.41357 10.0908 8.41357 8.14281C8.41357 6.19479 10.0133 4.60547 11.9993 4.60547C13.9853 4.60547 15.585 6.19479 15.585 8.14281Z" stroke="black"/>
        <path d="M17.9702 20.5654V18.1516C17.9702 14.8537 15.2967 12.1802 11.9988 12.1802V12.1802C8.70084 12.1802 6.02734 14.8537 6.02734 18.1516V20.5654" stroke="black"/>
    </symbol>
    <symbol id="logo"  viewBox="0 0 104 62">
        <path d="M82.445 41.3957C93.8526 41.3957 103.111 32.137 103.111 20.6979C103.111 20.6663 103.111 20.6031 103.111 20.5715C103.048 9.19554 93.821 0 82.445 0C82.0026 0 81.5603 0 81.1179 0.0315998H5.24677C2.37119 0.0315998 -0.0619954 2.40158 0.00120419 5.27716C0.0644038 8.05795 2.33959 10.3015 5.12037 10.3015H46.0421C49.0441 10.3015 51.5089 12.7347 51.5089 15.7683V25.6906C51.5089 28.661 49.1073 31.0626 46.1369 31.0626H25.8498C22.9742 31.0626 20.5727 33.401 20.6043 36.3082C20.6675 39.0889 22.9426 41.3325 25.7234 41.3325H46.1369C49.1073 41.3325 51.5089 43.7341 51.5089 46.7045V56.8796C51.5089 59.7552 53.8788 62.062 56.7544 61.9988C59.5668 61.9356 61.7788 59.5972 61.7788 56.7848V54.9204V46.5149V41.3957V25.975C61.7788 25.9118 61.7788 25.8486 61.7788 25.7854V15.5471C61.7788 12.7347 64.054 10.4595 66.8664 10.4595H82.445C88.0382 10.4595 92.5886 14.9151 92.7466 20.4451C92.7466 20.5399 92.7466 20.6347 92.7466 20.7295C92.7466 20.7927 92.7466 20.8875 92.7466 20.9507C92.6202 26.5438 88.0698 31.031 82.445 31.031H76.3463C73.5023 31.031 71.1639 33.3378 71.1639 36.2134C71.1639 39.0573 73.4707 41.3957 76.3463 41.3957H82.445Z" />
        <path d="M82.445 41.3957C93.8526 41.3957 103.111 32.137 103.111 20.6979C103.111 20.6663 103.111 20.6031 103.111 20.5715C103.048 9.19554 93.821 0 82.445 0C82.0026 0 81.5603 0 81.1179 0.0315998H5.24677C2.37119 0.0315998 -0.0619954 2.40158 0.00120419 5.27716C0.0644038 8.05795 2.33959 10.3015 5.12037 10.3015H46.0421C49.0441 10.3015 51.5089 12.7347 51.5089 15.7683V25.6906C51.5089 28.661 49.1073 31.0626 46.1369 31.0626H25.8498C22.9742 31.0626 20.5727 33.401 20.6043 36.3082C20.6675 39.0889 22.9426 41.3325 25.7234 41.3325H46.1369C49.1073 41.3325 51.5089 43.7341 51.5089 46.7045V56.8796C51.5089 59.7552 53.8788 62.062 56.7544 61.9988C59.5668 61.9356 61.7788 59.5972 61.7788 56.7848V54.9204V46.5149V41.3957V25.975C61.7788 25.9118 61.7788 25.8486 61.7788 25.7854V15.5471C61.7788 12.7347 64.054 10.4595 66.8664 10.4595H82.445C88.0382 10.4595 92.5886 14.9151 92.7466 20.4451C92.7466 20.5399 92.7466 20.6347 92.7466 20.7295C92.7466 20.7927 92.7466 20.8875 92.7466 20.9507C92.6202 26.5438 88.0698 31.031 82.445 31.031H76.3463C73.5023 31.031 71.1639 33.3378 71.1639 36.2134C71.1639 39.0573 73.4707 41.3957 76.3463 41.3957H82.445Z"  style="mix-blend-mode:darken"/>
    </symbol>
    <symbol id="youtube" viewBox="0 0 31 31" fill="none" xmlns="http://www.w3.org/2000/svg">
        <path d="M13.4307 17.3654L18.122 14.8768L13.4307 12.4385V17.3654Z" fill="#4D4E50"/>
        <path d="M15.1488 0C6.78245 0 0 6.78245 0 15.1488C0 23.5152 6.78245 30.2977 15.1488 30.2977C23.5152 30.2977 30.2977 23.5152 30.2977 15.1488C30.2977 6.78245 23.5152 0 15.1488 0ZM23.6071 18.6771C23.4053 19.955 22.7875 20.649 21.4883 20.7959C20.0365 20.9599 16.7721 21.0355 15.3212 21.0355C13.8199 21.0355 10.7835 20.9725 9.26773 20.8462C7.96488 20.7378 7.07583 20.01 6.89673 18.7149C6.76647 17.7717 6.6823 16.6508 6.6823 14.8684C6.6823 12.8841 6.75388 12.0445 6.92192 11.1481C7.16185 9.86893 7.77257 9.2493 9.16666 9.10522C10.6296 8.95377 12.0126 8.87819 15.1068 8.87819C16.6194 8.87819 19.8807 8.95653 21.3872 9.09262C22.703 9.21151 23.4443 10.0164 23.6068 11.2996C23.7201 12.1951 23.8212 13.477 23.8212 14.8561C23.8215 17.2772 23.6071 18.6771 23.6071 18.6771Z" fill="#4D4E50"/>
    </symbol>
    <symbol id="facebook" viewBox="0 0 32 30" fill="none" xmlns="http://www.w3.org/2000/svg">
        <path d="M15.7969 0C7.23655 0 0.296875 6.71581 0.296875 15C0.296875 23.2842 7.23655 30 15.7969 30C24.3572 30 31.2969 23.2842 31.2969 15C31.2969 6.71581 24.3572 0 15.7969 0ZM20.3508 8.59781C19.614 8.59781 18.8725 8.59781 18.1361 8.59781C17.6699 8.5686 17.189 8.91294 17.1038 9.36405C17.0938 10.1449 17.0988 10.9254 17.0988 11.7063C18.181 11.7111 19.2636 11.7063 20.3461 11.7111C20.2659 12.8409 20.1207 13.9661 19.9504 15.0815C18.9932 15.0913 18.0361 15.0815 17.079 15.0864C17.0689 18.4178 17.084 21.7444 17.074 25.0761C15.6507 25.081 14.2328 25.0713 12.8095 25.081C12.7844 21.7496 12.8095 18.4181 12.7944 15.0864C12.1029 15.0815 11.4064 15.0913 10.7149 15.0815C10.7199 13.9612 10.7149 12.8412 10.7149 11.7257C11.4064 11.716 12.1029 11.7257 12.7944 11.7209C12.8146 10.6346 12.7743 9.54352 12.8146 8.45727C12.8897 7.58913 13.2254 6.72128 13.8921 6.12478C14.6989 5.38287 15.8412 5.1307 16.9237 5.1015C18.0663 5.09176 19.2089 5.09663 20.3511 5.09663C20.3558 6.26531 20.3558 7.42912 20.3508 8.59781Z" fill="#4D4E50"/>
    </symbol>
    <symbol id="instagram" viewBox="0 0 31 31" fill="none" xmlns="http://www.w3.org/2000/svg">
        <path d="M19.3922 7.51709H11.4224C9.42807 7.51709 7.80542 9.13974 7.80542 11.1341V19.177C7.80542 21.1714 9.42807 22.794 11.4224 22.794H19.3922C21.3866 22.794 23.0092 21.1714 23.0092 19.177V11.1341C23.0092 9.13974 21.3866 7.51709 19.3922 7.51709ZM15.4225 19.9714C12.7191 19.9714 10.5199 17.7955 10.5199 15.121C10.5199 12.4465 12.7195 10.2706 15.4225 10.2706C18.1256 10.2706 20.3252 12.4465 20.3252 15.121C20.3252 17.7955 18.1259 19.9714 15.4225 19.9714ZM20.4125 11.2257C19.7753 11.2257 19.2589 10.7092 19.2589 10.0721C19.2589 9.43496 19.7753 8.91855 20.4125 8.91855C21.0496 8.91855 21.566 9.43496 21.566 10.0721C21.566 10.7092 21.0496 11.2257 20.4125 11.2257Z" fill="#4D4E50"/>
        <path d="M15.4457 0C7.07932 0 0.296875 6.78245 0.296875 15.1488C0.296875 23.5152 7.07932 30.2977 15.4457 30.2977C23.8121 30.2977 30.5946 23.5152 30.5946 15.1488C30.5946 6.78245 23.8121 0 15.4457 0ZM24.7992 19.1772C24.7992 22.1583 22.3738 24.5834 19.393 24.5834H11.4232C8.44208 24.5834 6.01701 22.158 6.01701 19.1772V11.1343C6.01701 8.15319 8.44239 5.72812 11.4232 5.72812H19.393C22.3741 5.72812 24.7992 8.1535 24.7992 11.1343V19.1772Z" fill="#4D4E50"/>
        <path d="M15.4243 12.0566C13.7055 12.0566 12.3074 13.4314 12.3074 15.1213C12.3074 16.8112 13.7055 18.186 15.4243 18.186C17.1431 18.186 18.5412 16.8112 18.5412 15.1213C18.5412 13.4314 17.1431 12.0566 15.4243 12.0566Z" fill="#4D4E50"/>
    </symbol>
    <symbol id="linkedin" viewBox="0 0 30 31" fill="none" xmlns="http://www.w3.org/2000/svg">
        <path d="M15 0.297852C6.71581 0.297852 0 7.01366 0 15.2979C0 23.582 6.71581 30.2979 15 30.2979C23.2842 30.2979 30 23.582 30 15.2979C30 7.01366 23.2842 0.297852 15 0.297852ZM10.9835 22.2917H7.36525V11.4067H10.9835V22.2917ZM9.17454 9.92137H9.15021C7.93651 9.92137 7.14988 9.08456 7.14988 8.03968C7.14988 6.97168 7.95993 6.1592 9.19827 6.1592C10.4366 6.1592 11.198 6.97138 11.2217 8.03968C11.2217 9.08486 10.4369 9.92137 9.17454 9.92137ZM24.0328 22.2917H20.4142V16.4681C20.4142 15.0052 19.8907 14.0069 18.5812 14.0069C17.5813 14.0069 16.9863 14.6797 16.7244 15.3307C16.6289 15.5634 16.6043 15.8874 16.6043 16.2128V22.2917H12.9845C12.9845 22.2917 13.0331 12.4285 12.9845 11.4067H16.6037V12.9495C17.0846 12.2088 17.9433 11.1509 19.8654 11.1509C22.2469 11.1509 24.0322 12.7065 24.0322 16.0501V22.2917H24.0328Z" fill="#4D4E50"/>
    </symbol>
    <symbol id="twitter" viewBox="0 0 31 31" fill="none" xmlns="http://www.w3.org/2000/svg">
        <path d="M15.5 0.297852C6.93967 0.297852 0 7.01366 0 15.2979C0 23.582 6.93967 30.2979 15.5 30.2979C24.0603 30.2979 31 23.582 31 15.2979C31 7.01366 24.0603 0.297852 15.5 0.297852ZM24.105 11.7188V12.2396C24.105 17.4469 20.0693 23.3484 12.6258 23.3484C10.2941 23.3484 8.23155 22.741 6.43769 21.6127C6.79634 21.6994 7.0654 21.6994 7.42405 21.6994C9.30748 21.6994 11.101 21.092 12.4463 20.0504C10.6528 20.0504 9.2179 18.9222 8.67977 17.3599C8.85925 17.4466 9.12832 17.4466 9.39738 17.4466C9.75602 17.4466 10.1147 17.3599 10.4736 17.2729C8.59019 16.9259 7.24519 15.3636 7.24519 13.4542V13.3675C7.78332 13.7146 8.41103 13.8883 9.03873 13.8883C7.96248 13.1938 7.24519 12.0656 7.24519 10.677C7.24519 9.89582 7.42467 9.28836 7.78332 8.6809C9.84592 11.024 12.8056 12.5863 16.1236 12.76C16.034 12.4996 16.034 12.2393 16.034 11.8922C16.034 9.72243 17.8276 7.98675 20.0697 7.98675C21.2355 7.98675 22.3117 8.42082 23.029 9.20167C24.0154 9.02798 24.8226 8.6809 25.6298 8.24713C25.2711 9.20167 24.6434 9.89612 23.8362 10.4169C24.6434 10.3302 25.4506 10.1565 26.1679 9.80943C25.6298 10.5906 25.0017 11.2847 24.105 11.7188Z" fill="#4D4E50"/>
    </symbol>
    <symbol id="vkontakte" viewBox="0 0 30 31" fill="none" xmlns="http://www.w3.org/2000/svg">
        <path d="M15 0.297852C6.71581 0.297852 0 7.01366 0 15.2979C0 23.582 6.71581 30.2979 15 30.2979C23.2842 30.2979 30 23.582 30 15.2979C30 7.01366 23.2842 0.297852 15 0.297852ZM21.5047 17.2805C21.6227 17.4265 21.9035 17.711 22.3476 18.1344H22.3579L22.3683 18.1444L22.3786 18.1551L22.3996 18.1758C23.3779 19.0847 24.0404 19.8515 24.3875 20.476C24.4085 20.5104 24.431 20.5542 24.4553 20.6062C24.4793 20.6582 24.5037 20.7501 24.528 20.8818C24.552 21.0141 24.5502 21.1315 24.5228 21.2356C24.4952 21.3393 24.4085 21.4354 24.2628 21.5218C24.1171 21.6088 23.9123 21.652 23.6486 21.652L20.9842 21.694C20.8179 21.7286 20.6235 21.7113 20.4014 21.6419C20.1791 21.5723 19.999 21.4959 19.8603 21.4129L19.6519 21.2876C19.4435 21.1419 19.2008 20.9198 18.9234 20.6217C18.6457 20.3233 18.4081 20.0544 18.2104 19.815C18.0127 19.5756 17.8009 19.3749 17.5752 19.2112C17.3495 19.0482 17.1536 18.9943 16.9872 19.05C16.9666 19.0573 16.9386 19.0694 16.9039 19.0865C16.8689 19.1038 16.8102 19.1537 16.7269 19.2374C16.6435 19.3207 16.569 19.4232 16.503 19.5443C16.437 19.666 16.378 19.8463 16.3259 20.0857C16.2739 20.3248 16.2511 20.594 16.2584 20.8924C16.2584 20.9962 16.2459 21.092 16.2219 21.1787C16.1976 21.2654 16.1714 21.3295 16.1437 21.3709L16.1021 21.4229C15.977 21.5553 15.7933 21.6313 15.5506 21.652H14.3536C13.8608 21.68 13.3544 21.6228 12.8342 21.4804C12.314 21.3378 11.8575 21.1543 11.4657 20.9286C11.0733 20.7035 10.7162 20.4745 10.3937 20.2421C10.071 20.0094 9.82641 19.8101 9.66002 19.6438L9.39994 19.3937C9.33059 19.3247 9.23507 19.2203 9.1137 19.0813C8.99233 18.9426 8.74442 18.6272 8.36967 18.1344C7.99491 17.6416 7.62715 17.1181 7.26639 16.5627C6.90562 16.0075 6.48067 15.2753 5.99124 14.3664C5.50211 13.4578 5.04948 12.5142 4.63305 11.5357C4.59138 11.425 4.57039 11.3313 4.57039 11.2549C4.57039 11.1789 4.58073 11.1232 4.60172 11.0882L4.64339 11.0259C4.74742 10.8939 4.94515 10.8278 5.23656 10.8278L8.08829 10.8072C8.17164 10.8212 8.25134 10.8437 8.32769 10.875C8.40404 10.906 8.45971 10.9355 8.49438 10.9632L8.5464 10.9945C8.65743 11.0712 8.74047 11.1819 8.79613 11.3276C8.93484 11.675 9.09454 12.0339 9.27492 12.405C9.45531 12.7762 9.59766 13.059 9.7017 13.2531L9.86809 13.5552C10.0692 13.9713 10.2635 14.3324 10.4509 14.6375C10.6386 14.9429 10.8065 15.1807 10.9559 15.3505C11.1049 15.5205 11.2488 15.6544 11.3878 15.7511C11.5265 15.8484 11.6445 15.8971 11.7419 15.8971C11.8389 15.8971 11.9326 15.8798 12.0229 15.8451C12.0366 15.8381 12.054 15.8207 12.075 15.7931C12.0959 15.7654 12.1373 15.689 12.2 15.5637C12.2623 15.439 12.3092 15.276 12.3405 15.0746C12.3718 14.8738 12.4047 14.5927 12.4394 14.232C12.474 13.8709 12.474 13.4375 12.4394 12.931C12.4254 12.6533 12.394 12.4002 12.3457 12.1711C12.297 11.9424 12.2483 11.7827 12.2 11.6923L12.1373 11.5676C11.9639 11.3319 11.6692 11.1825 11.2527 11.1199C11.1624 11.1065 11.1797 11.0231 11.3048 10.8704C11.4228 10.7384 11.5545 10.6347 11.7002 10.558C12.068 10.378 12.8972 10.2946 14.1878 10.308C14.7567 10.3153 15.2251 10.36 15.5929 10.4434C15.7316 10.4783 15.8478 10.5249 15.9415 10.5839C16.0351 10.6426 16.1063 10.7262 16.155 10.8333C16.2034 10.941 16.2399 11.052 16.2642 11.1664C16.2885 11.2811 16.3007 11.4393 16.3007 11.64C16.3007 11.8414 16.2974 12.0324 16.2904 12.2125C16.2834 12.3929 16.2748 12.6377 16.2645 12.9462C16.2542 13.2549 16.2487 13.5415 16.2487 13.8049C16.2487 13.8816 16.2453 14.027 16.2383 14.242C16.2313 14.4574 16.2292 14.6238 16.2332 14.7415C16.2365 14.8595 16.2487 15.0004 16.2694 15.1631C16.2904 15.3261 16.3302 15.4618 16.3892 15.5689C16.4479 15.6766 16.5261 15.7614 16.6234 15.8238C16.6788 15.8381 16.7378 15.8518 16.8005 15.8658C16.8628 15.8795 16.9529 15.8417 17.0709 15.7511C17.1886 15.661 17.3206 15.5412 17.4663 15.3921C17.612 15.2434 17.7924 15.011 18.0075 14.695C18.2222 14.3798 18.4583 14.0066 18.715 13.5762C19.1314 12.8546 19.5026 12.0738 19.8286 11.2342C19.8563 11.1646 19.891 11.104 19.9327 11.052C19.9743 10.9997 20.0124 10.9632 20.047 10.9425L20.0887 10.9112C20.1024 10.9042 20.1197 10.8957 20.1407 10.8853C20.1617 10.8753 20.2067 10.8647 20.2761 10.854C20.3455 10.844 20.4148 10.8421 20.4845 10.8491L23.4819 10.8278C23.7523 10.7935 23.9744 10.802 24.1478 10.8537C24.3212 10.9057 24.4288 10.9632 24.4705 11.0256L24.5332 11.1296C24.6926 11.574 24.1724 12.5933 22.9721 14.1894C22.8054 14.4118 22.5797 14.7068 22.2956 15.0743C21.7544 15.7684 21.4423 16.2229 21.3596 16.4385C21.241 16.7224 21.2896 17.0034 21.5047 17.2805Z" fill="#4D4E50"/>
    </symbol>
    <symbol id="qr" viewBox="0 0 24 23" fill="none" xmlns="http://www.w3.org/2000/svg">
        <rect x="3" y="3" width="0.857144" height="17" fill="#836FE0"/>
        <rect x="4.71436" y="3" width="1.71429" height="17" fill="#836FE0"/>
        <rect x="7.28564" y="3" width="1.71429" height="17" fill="#836FE0"/>
        <rect x="9.85712" y="3" width="0.857144" height="17" fill="#836FE0"/>
        <rect x="11.5715" y="3" width="0.857144" height="17" fill="#836FE0"/>
        <rect x="13.2856" y="3" width="1.71429" height="17" fill="#836FE0"/>
        <rect x="15.8571" y="3" width="0.857144" height="17" fill="#836FE0"/>
        <rect x="17.5715" y="3" width="1.71429" height="17" fill="#836FE0"/>
        <rect x="20.1429" y="3" width="0.857144" height="17" fill="#836FE0"/>
        <path d="M17 1H23V7" stroke="#836FE0" stroke-linecap="round"/>
        <path d="M17 22H23V16" stroke="#836FE0" stroke-linecap="round"/>
        <path d="M7 1H1V7" stroke="#836FE0" stroke-linecap="round"/>
        <path d="M7 22H1V16" stroke="#836FE0" stroke-linecap="round"/>
    </symbol>
    <symbol id="micro" viewBox="0 0 16 23" fill="none" xmlns="http://www.w3.org/2000/svg">
        <rect x="5.5" y="0.5" width="5" height="11" rx="2.5" fill="#836FE0" stroke="#836FE0"/>
        <path d="M15 7C15 10.866 11.866 14 8 14C4.13401 14 1 10.866 1 7" stroke="#836FE0" stroke-linecap="round"/>
        <path d="M8 16V22" stroke="#836FE0" stroke-linecap="round"/>
        <path d="M4.5 22H11.5" stroke="#836FE0" stroke-linecap="round"/>
    </symbol>
    <symbol id="search1" viewBox="0 0 15 15" fill="none" xmlns="http://www.w3.org/2000/svg">
        <path d="M14.5001 4.94118C14.5001 7.38001 12.4588 9.38235 9.90915 9.38235C7.35948 9.38235 5.31824 7.38001 5.31824 4.94118C5.31824 2.50235 7.35948 0.5 9.90915 0.5C12.4588 0.5 14.5001 2.50235 14.5001 4.94118Z" stroke="#BBBBBB" stroke-linecap="round"/>
        <path d="M6.51515 8.64697L1 13.9999" stroke="#BBBBBB" stroke-linecap="round"/>
    </symbol>
</svg>